<?xml version="1.0" encoding="UTF-8" standalone="no"?>
<!-- Created with Inkscape (http://www.inkscape.org/) -->

<svg
   xmlns:dc="http://purl.org/dc/elements/1.1/"
   xmlns:cc="http://creativecommons.org/ns#"
   xmlns:rdf="http://www.w3.org/1999/02/22-rdf-syntax-ns#"
   xmlns:svg="http://www.w3.org/2000/svg"
   xmlns="http://www.w3.org/2000/svg"
   xmlns:sodipodi="http://sodipodi.sourceforge.net/DTD/sodipodi-0.dtd"
   xmlns:inkscape="http://www.inkscape.org/namespaces/inkscape"
   width="793.70081"
   height="1122.5197"
   viewBox="0 0 210 297"
   version="1.1"
   id="svg8"
   inkscape:export-filename="C:\Users\Mouad\Desktop\WebDev\ReactJS\Redux\planny\src\img\loadingPlant.png"
   inkscape:export-xdpi="37.306938"
   inkscape:export-ydpi="37.306938"
   sodipodi:docname="plant.svg"
   inkscape:version="0.92.1 r15371">
  <defs
     id="defs2" />
  <sodipodi:namedview
     id="base"
     pagecolor="#ffffff"
     bordercolor="#666666"
     borderopacity="1.0"
     inkscape:pageopacity="0.0"
     inkscape:pageshadow="2"
     inkscape:zoom="0.35"
     inkscape:cx="-525.50829"
     inkscape:cy="655.66029"
     inkscape:document-units="mm"
     inkscape:current-layer="layer1"
     showgrid="false"
     inkscape:pagecheckerboard="true"
     units="px"
     inkscape:window-width="1366"
     inkscape:window-height="705"
     inkscape:window-x="-8"
     inkscape:window-y="-8"
     inkscape:window-maximized="1" />
  <metadata
     id="metadata5">
    <rdf:RDF>
      <cc:Work
         rdf:about="">
        <dc:format>image/svg+xml</dc:format>
        <dc:type
           rdf:resource="http://purl.org/dc/dcmitype/StillImage" />
        <dc:title />
      </cc:Work>
    </rdf:RDF>
  </metadata>
  <g
     inkscape:label="Layer 1"
     inkscape:groupmode="layer"
     id="layer1">
    <g
       id="g14"
       transform="matrix(0.26529112,0,0,0.26529112,-243.87037,23.647692)"
       style="opacity:1;fill:#ee285f;fill-opacity:0.94117647;stroke:#000000;stroke-width:4.0144577;stroke-miterlimit:4;stroke-dasharray:none;stroke-opacity:1">
      <path
         style="fill:#ee285f;fill-opacity:0.94117647;stroke:#000000;stroke-width:4.0144577;stroke-miterlimit:4;stroke-dasharray:none;stroke-opacity:1"
         inkscape:connector-curvature="0"
         d="m 203.682,50.316 c -27.984,33.104 -40.561,58.498 -49.188,71.821 12.021,11.431 86.135,81.898 100.459,95.52 v 0.693 c 0.1,-0.095 0.215,-0.204 0.326,-0.311 l 10,-117.987 -10,-100.021 c -1.07,0.776 -24.392,18.099 -51.597,50.285 z"
         id="path10" />
      <path
         style="fill:#ee285f;fill-opacity:0.94117647;stroke:#000000;stroke-width:4.0144577;stroke-miterlimit:4;stroke-dasharray:none;stroke-opacity:1"
         inkscape:connector-curvature="0"
         d="M 306.953,50.316 C 278.771,16.973 254.848,-0.348 255.32,0.007 c -0.002,0 -0.002,0.002 -0.002,0.002 -0.002,0 -0.002,-0.002 -0.004,-0.002 0.021,-0.017 0.006,-0.004 -0.035,0.024 V 218.04 c 0.014,-0.013 0.025,-0.024 0.039,-0.036 0.123,0.117 0.252,0.24 0.363,0.347 l 0.111,-0.798 c 14.58,-13.863 88.356,-84.012 100.348,-95.415 -8.627,-13.324 -21.203,-38.717 -49.187,-71.822 z"
         id="path12" />
    </g>
    <g
       id="g20"
       transform="matrix(0.26529112,0,0,0.26529112,-243.87037,23.647692)"
       style="opacity:1;fill:#ee285f;fill-opacity:0.94117647;stroke:#000000;stroke-width:4.0144577;stroke-miterlimit:4;stroke-dasharray:none;stroke-opacity:1">
      <path
         style="fill:#ee285f;fill-opacity:0.94117647;stroke:#000000;stroke-width:4.0144577;stroke-miterlimit:4;stroke-dasharray:none;stroke-opacity:1"
         inkscape:connector-curvature="0"
         d="M 219.379,128.612 C 190.613,90.634 163.897,71.52 161.199,69.056 c -31.104,25.412 -56.004,52.237 -77.582,88.119 -37.215,61.885 -34.98,107.733 -37.24,117.582 8.822,5.098 150.01,86.663 158.834,91.761 7.98,-13.345 36.24,-60.603 50.068,-83.727 l 10,-60.49 -10,-33.323 c -10.248,-23.259 -23.211,-43.61 -35.9,-60.366 z"
         id="path16" />
      <path
         style="fill:#ee285f;fill-opacity:0.94117647;stroke:#000000;stroke-width:4.0144577;stroke-miterlimit:4;stroke-dasharray:none;stroke-opacity:1"
         inkscape:connector-curvature="0"
         d="m 427.017,157.175 c -21.578,-35.882 -46.478,-62.707 -77.582,-88.119 -2.697,2.464 -29.414,21.578 -58.18,59.556 -12.705,16.776 -25.686,37.156 -35.938,60.45 -0.014,-0.028 -0.025,-0.057 -0.039,-0.084 v 93.813 c 0.014,-0.021 0.027,-0.043 0.039,-0.064 13.813,23.102 42.119,70.434 50.105,83.79 8.824,-5.098 150.012,-86.663 158.834,-91.761 -2.258,-9.847 -0.024,-55.696 -37.239,-117.581 z"
         id="path18" />
    </g>
    <path
       style="opacity:1;fill:#ee285f;fill-opacity:0.94117647;stroke:#000000;stroke-width:1.06500006;stroke-miterlimit:4;stroke-dasharray:none;stroke-opacity:1"
       inkscape:connector-curvature="0"
       d="m -196.04395,129.73549 -14.13763,22.89064 c -20.2709,-8.9602 -30.92658,-27.10373 -33.11205,-48.54509 -0.82638,-8.112601 -0.1528,-12.690995 0.17138,-15.746088 0.80357,-0.0072 13.66462,-2.197141 29.56749,2.080413 6.69807,1.801592 13.81318,4.768608 20.23668,9.599555 z"
       id="path22" />
    <path
       style="opacity:1;fill:#ee285f;fill-opacity:0.94117647;stroke:#000000;stroke-width:1.06500006;stroke-miterlimit:4;stroke-dasharray:none;stroke-opacity:1"
       inkscape:connector-curvature="0"
       d="m -156.23012,129.73549 14.13763,22.89064 c 20.27089,-8.9602 30.92658,-27.10373 33.11231,-48.54509 0.82638,-8.112601 0.15281,-12.690995 -0.17164,-15.746088 -0.80357,-0.0072 -13.66462,-2.197141 -29.56749,2.080413 -6.69808,1.801592 -13.81318,4.768608 -20.23668,9.599555 z"
       id="path24" />
    <g
       id="g30"
       transform="matrix(0.26529112,0,0,0.26529112,-243.87037,23.647692)"
       style="opacity:1;fill:#ee285f;fill-opacity:0.94117647;stroke:#000000;stroke-width:4.0144577;stroke-miterlimit:4;stroke-dasharray:none;stroke-opacity:1">
      <path
         style="fill:#ee285f;fill-opacity:0.94117647;stroke:#000000;stroke-width:4.0144577;stroke-miterlimit:4;stroke-dasharray:none;stroke-opacity:1"
         inkscape:connector-curvature="0"
         d="M 254.953,212.789 C 97.679,372.94 129.81,464.826 126.988,486.177 c 2.518,0.962 47.205,24.314 127.965,24.453 v 0.004 c 0.109,0 0.217,-0.002 0.326,-0.002 l 10,-120.086 -10,-178.092 z"
         id="path26" />
      <path
         style="fill:#ee285f;fill-opacity:0.94117647;stroke:#000000;stroke-width:4.0144577;stroke-miterlimit:4;stroke-dasharray:none;stroke-opacity:1"
         inkscape:connector-curvature="0"
         d="m 255.736,212.843 -0.418,-0.428 -0.039,0.039 v 298.178 h 0.039 c 0.121,0 0.242,0.002 0.363,0.002 v -0.004 c 80.76,-0.139 125.447,-23.491 127.965,-24.453 -2.822,-21.349 29.301,-113.216 -127.91,-273.334 z"
         id="path28" />
    </g>
  </g>
</svg>
